# Blender 4.3.2
# www.blender.org
mtllib PS5game.mtl
o Cube
v 0.057713 0.138818 0.007891
v 0.057713 0.138818 -0.007109
v 0.057713 -0.031182 0.007891
v 0.057713 -0.031182 -0.007109
v -0.077287 0.138818 0.007891
v -0.077287 0.138818 -0.007109
v -0.077287 -0.031182 0.007891
v -0.077287 -0.031182 -0.007109
vn -0.0000 -0.0000 1.0000
vn -0.0000 -1.0000 -0.0000
vn -1.0000 -0.0000 -0.0000
vn -0.0000 -0.0000 -1.0000
vn 1.0000 -0.0000 -0.0000
vn -0.0000 1.0000 -0.0000
vt 0.364188 0.009127
vt 0.633594 0.009095
vt 0.633595 0.466478
vt 0.364119 0.466489
vt 0.364061 0.499228
vt 0.633574 0.499237
vt 0.659289 0.499236
vt 0.659280 0.956523
vt 0.633570 0.956565
vt 0.364093 0.956545
vt 0.338320 0.956571
vt 0.338377 0.499300
vt 0.633553 0.989304
vt 0.364097 0.989303
s 0
usemtl Material
f 1/1/1 5/2/1 7/3/1 3/4/1
f 4/5/2 3/4/2 7/3/2 8/6/2
f 8/6/3 7/7/3 5/8/3 6/9/3
f 6/9/4 2/10/4 4/5/4 8/6/4
f 2/10/5 1/11/5 3/12/5 4/5/5
f 6/9/6 5/13/6 1/14/6 2/10/6
