# Blender 5.2.0 LTS
# www.blender.org
mtllib 8.mtl
o Cube
v -0.142389 -0.008716 0.230496
v -0.142389 0.008716 0.230496
v -0.142389 -0.008716 -0.230496
v -0.142389 0.008716 -0.230496
v 0.142389 -0.008716 0.230496
v 0.142389 0.008716 0.230496
v 0.142389 -0.008716 -0.230496
v 0.142389 0.008716 -0.230496
vn -1.0000 -0.0000 -0.0000
vn -0.0000 -0.0000 -1.0000
vn 1.0000 -0.0000 -0.0000
vn -0.0000 -0.0000 1.0000
vn -0.0000 -1.0000 -0.0000
vn -0.0000 1.0000 -0.0000
vt 0.495444 -0.007540
vt 0.500331 -0.007540
vt 0.500331 0.987499
vt 0.495444 0.987499
vt 0.496102 0.978877
vt 0.496102 0.536772
vt 0.500211 0.536772
vt 0.500211 0.978877
vt 1.000850 0.995858
vt 0.964101 0.996484
vt 0.962296 0.004713
vt 0.999045 0.004088
vt 0.496393 0.007545
vt 0.500533 0.002505
vt 0.500533 0.991290
vt 0.496393 0.996329
vt 0.489700 1.005768
vt 0.004169 1.003374
vt 0.004880 -0.004286
vt 0.490411 -0.001892
vt 0.960089 1.000305
vt 0.501322 1.000305
vt 0.501322 -0.003374
vt 0.960089 -0.003374
s 0
usemtl Material.001
f 1/1/1 2/2/1 4/3/1 3/4/1
f 3/5/2 4/6/2 8/7/2 7/8/2
f 7/9/3 8/10/3 6/11/3 5/12/3
f 5/13/4 6/14/4 2/15/4 1/16/4
f 3/17/5 7/18/5 5/19/5 1/20/5
f 8/21/6 4/22/6 2/23/6 6/24/6
