# Blender 4.3.2
# www.blender.org
mtllib XboxSeriesS.mtl
o Cube
v 0.154328 0.236807 0.065231
v 0.154328 0.236807 -0.058769
v 0.154328 -0.053193 0.065231
v 0.154328 -0.053193 -0.058769
v -0.206672 0.236807 0.065231
v -0.206672 0.236807 -0.058769
v -0.206672 -0.053193 0.065231
v -0.206672 -0.053193 -0.058769
vn -0.0000 -0.0000 1.0000
vn -0.0000 -1.0000 -0.0000
vn -1.0000 -0.0000 -0.0000
vn -0.0000 -0.0000 -1.0000
vn 1.0000 -0.0000 -0.0000
vn -0.0000 1.0000 -0.0000
vt 0.214964 0.016431
vt 0.789779 0.016431
vt 0.789851 0.356958
vt 0.214961 0.356752
vt 0.214980 0.502363
vt 0.789850 0.502373
vt 0.985645 0.502346
vt 0.985650 0.842711
vt 0.789832 0.842714
vt 0.214992 0.842738
vt 0.017524 0.842718
vt 0.017526 0.502342
vt 0.789821 0.988218
vt 0.214979 0.988251
s 0
usemtl Material
f 1/1/1 5/2/1 7/3/1 3/4/1
f 4/5/2 3/4/2 7/3/2 8/6/2
f 8/6/3 7/7/3 5/8/3 6/9/3
f 6/9/4 2/10/4 4/5/4 8/6/4
f 2/10/5 1/11/5 3/12/5 4/5/5
f 6/9/6 5/13/6 1/14/6 2/10/6
