# Blender 4.3.2
# www.blender.org
mtllib PS3gamingconsoles.mtl
o Cube
v 0.193686 -0.156168 -0.107732
v 0.193686 -0.156168 0.067268
v 0.193686 0.183832 -0.107732
v 0.193686 0.183832 0.067268
v -0.241314 -0.156168 -0.107732
v -0.241314 -0.156168 0.067268
v -0.241314 0.183832 -0.107732
v -0.241314 0.183832 0.067268
vn -0.0000 -0.0000 -1.0000
vn -0.0000 1.0000 -0.0000
vn -1.0000 -0.0000 -0.0000
vn -0.0000 -0.0000 1.0000
vn 1.0000 -0.0000 -0.0000
vn -0.0000 -1.0000 -0.0000
vt 0.235598 0.004846
vt 0.775052 0.004818
vt 0.774968 0.325586
vt 0.235613 0.325601
vt 0.235610 0.494468
vt 0.775001 0.494454
vt 0.991976 0.494437
vt 0.991978 0.822463
vt 0.774956 0.822456
vt 0.235581 0.822487
vt 0.018599 0.822468
vt 0.018615 0.494452
vt 0.774997 0.991339
vt 0.235609 0.991345
s 0
usemtl Material
f 1/1/1 5/2/1 7/3/1 3/4/1
f 4/5/2 3/4/2 7/3/2 8/6/2
f 8/6/3 7/7/3 5/8/3 6/9/3
f 6/9/4 2/10/4 4/5/4 8/6/4
f 2/10/5 1/11/5 3/12/5 4/5/5
f 6/9/6 5/13/6 1/14/6 2/10/6
