# Blender 4.3.2
# www.blender.org
mtllib Xbox360.mtl
o Cube
v 0.123975 0.253139 0.094690
v 0.123975 0.253139 -0.085310
v 0.123975 -0.056861 0.094690
v 0.123975 -0.056861 -0.085310
v -0.166025 0.253139 0.094690
v -0.166025 0.253139 -0.085310
v -0.166025 -0.056861 0.094690
v -0.166025 -0.056861 -0.085310
vn -0.0000 -0.0000 1.0000
vn -0.0000 -1.0000 -0.0000
vn -1.0000 -0.0000 -0.0000
vn -0.0000 -0.0000 -1.0000
vn 1.0000 -0.0000 -0.0000
vn -0.0000 1.0000 -0.0000
vt 0.288448 0.010136
vt 0.711473 0.010117
vt 0.711514 0.322862
vt 0.288478 0.322866
vt 0.288465 0.503685
vt 0.711553 0.503723
vt 0.973847 0.503744
vt 0.973837 0.816511
vt 0.711546 0.816486
vt 0.288433 0.816463
vt 0.026160 0.816488
vt 0.029099 0.505440
vt 0.711557 0.997885
vt 0.288471 0.997867
s 0
usemtl Material
f 1/1/1 5/2/1 7/3/1 3/4/1
f 4/5/2 3/4/2 7/3/2 8/6/2
f 8/6/3 7/7/3 5/8/3 6/9/3
f 6/9/4 2/10/4 4/5/4 8/6/4
f 2/10/5 1/11/5 3/12/5 4/5/5
f 6/9/6 5/13/6 1/14/6 2/10/6
