# Blender 4.3.2
# www.blender.org
mtllib XboxOneS.mtl
o Cube
v 0.154328 0.236807 0.065231
v 0.154328 0.236807 -0.058769
v 0.154328 -0.053193 0.065231
v 0.154328 -0.053193 -0.058769
v -0.206672 0.236807 0.065231
v -0.206672 0.236807 -0.058769
v -0.206672 -0.053193 0.065231
v -0.206672 -0.053193 -0.058769
vn -0.0000 -0.0000 1.0000
vn -0.0000 -1.0000 -0.0000
vn -1.0000 -0.0000 -0.0000
vn -0.0000 -0.0000 -1.0000
vn 1.0000 -0.0000 -0.0000
vn -0.0000 1.0000 -0.0000
vt 0.214232 0.007714
vt 0.778733 0.007713
vt 0.778738 0.351718
vt 0.214246 0.351719
vt 0.214234 0.498788
vt 0.778669 0.498947
vt 0.972622 0.498818
vt 0.972645 0.842824
vt 0.778726 0.842837
vt 0.214241 0.842824
vt 0.020360 0.842811
vt 0.020355 0.498820
vt 0.778740 0.989916
vt 0.214241 0.989911
s 0
usemtl Material
f 1/1/1 5/2/1 7/3/1 3/4/1
f 4/5/2 3/4/2 7/3/2 8/6/2
f 8/6/3 7/7/3 5/8/3 6/9/3
f 6/9/4 2/10/4 4/5/4 8/6/4
f 2/10/5 1/11/5 3/12/5 4/5/5
f 6/9/6 5/13/6 1/14/6 2/10/6
