# Blender 4.3.2
# www.blender.org
mtllib PS5gamingconsoles.mtl
o Cube
v 0.200926 0.318465 0.073648
v 0.200926 0.318465 -0.066352
v 0.200926 -0.071535 0.073648
v 0.200926 -0.071535 -0.066352
v -0.269074 0.318465 0.073648
v -0.269074 0.318465 -0.066352
v -0.269074 -0.071535 0.073648
v -0.269074 -0.071535 -0.066352
vn -0.0000 -0.0000 1.0000
vn -0.0000 -1.0000 -0.0000
vn -1.0000 -0.0000 -0.0000
vn -0.0000 -0.0000 -1.0000
vn 1.0000 -0.0000 -0.0000
vn -0.0000 1.0000 -0.0000
vt 0.222823 0.011998
vt 0.771275 0.012019
vt 0.771326 0.357350
vt 0.222916 0.357318
vt 0.222833 0.499605
vt 0.771300 0.499587
vt 0.978995 0.499611
vt 0.978999 0.844928
vt 0.771254 0.844932
vt 0.222864 0.844921
vt 0.015174 0.844924
vt 0.015214 0.499608
vt 0.771276 0.987216
vt 0.222862 0.987197
s 0
usemtl Material
f 1/1/1 5/2/1 7/3/1 3/4/1
f 4/5/2 3/4/2 7/3/2 8/6/2
f 8/6/3 7/7/3 5/8/3 6/9/3
f 6/9/4 2/10/4 4/5/4 8/6/4
f 2/10/5 1/11/5 3/12/5 4/5/5
f 6/9/6 5/13/6 1/14/6 2/10/6
